<svg width="128" height="128" viewBox="0 0 124 124" fill="none" xmlns="http://www.w3.org/2000/svg">
      <rect x="0.500732" y="79.234" width="72" height="31" rx="15.5" transform="rotate(-45 0.500732 79.234)" fill="#FF9E01"/>
      <path d="M112.539 32.8805C118.592 38.9336 118.592 48.7476 112.539 54.8008L83.5478 83.7921C77.4946 89.8453 67.6806 89.8453 61.6275 83.7921V83.7921C55.5743 77.739 55.5743 67.925 61.6275 61.8718L90.6188 32.8805C96.672 26.8273 106.486 26.8273 112.539 32.8805V32.8805Z" fill="#48CAED"/>
      <path d="M40.0607 83.4386C42.9393 86.3172 46.3567 88.6007 50.1178 90.1586C53.8789 91.7165 57.91 92.5183 61.981 92.5183C66.052 92.5183 70.0831 91.7165 73.8442 90.1586C77.6053 88.6007 81.0227 86.3172 83.9013 83.4386C86.7799 80.56 89.0633 77.1426 90.6212 73.3815C92.1791 69.6204 92.981 65.5893 92.981 61.5183C92.981 57.4473 92.1791 53.4162 90.6212 49.6551C89.0633 45.894 86.7799 42.4766 83.9013 39.598L61.981 61.5183L40.0607 83.4386Z" fill="#2A8BEA"/>
      <path d="M83.9393 39.6361C78.1256 33.8224 70.2407 30.5564 62.019 30.5564C53.7973 30.5564 45.9123 33.8224 40.0987 39.6361C34.285 45.4497 31.019 53.3347 31.019 61.5564C31.019 69.7781 34.285 77.663 40.0987 83.4767L62.019 61.5564L83.9393 39.6361Z" fill="#F73C5C"/>
</svg>
